<svg xmlns="http://www.w3.org/2000/svg" viewBox="0 0 512 512">
  <rect width="512" height="512" rx="100" fill="#0e1318"/>
  <ellipse cx="185" cy="200" rx="80" ry="52" fill="#ff8c3b" transform="rotate(-30 185 200)"/>
  <ellipse cx="185" cy="200" rx="70" ry="42" fill="none" stroke="#1e1000" stroke-width="6" transform="rotate(-30 185 200)"/>
  <line x1="168" y1="172" x2="202" y2="228" stroke="#fef3c7" stroke-width="5" stroke-linecap="round"/>
  <line x1="158" y1="193" x2="178" y2="193" stroke="#fef3c7" stroke-width="4" stroke-linecap="round"/>
  <line x1="175" y1="207" x2="195" y2="207" stroke="#fef3c7" stroke-width="4" stroke-linecap="round"/>
  <circle cx="330" cy="155" r="28" fill="#3dffa0"/>
  <line x1="330" y1="183" x2="325" y2="240" stroke="#3dffa0" stroke-width="14" stroke-linecap="round"/>
  <line x1="325" y1="240" x2="295" y2="285" stroke="#3dffa0" stroke-width="12" stroke-linecap="round"/>
  <line x1="325" y1="240" x2="355" y2="290" stroke="#3dffa0" stroke-width="12" stroke-linecap="round"/>
  <line x1="310" y1="210" x2="275" y2="240" stroke="#3dffa0" stroke-width="12" stroke-linecap="round"/>
  <line x1="340" y1="215" x2="370" y2="235" stroke="#3dffa0" stroke-width="12" stroke-linecap="round"/>
  <path d="M 80 370 Q 256 430 432 370" fill="none" stroke="#1a2430" stroke-width="18" stroke-linecap="round"/>
  <path d="M 80 370 Q 256 430 432 370" fill="none" stroke="#4da6ff" stroke-width="6" stroke-linecap="round" stroke-dasharray="20 15"/>
</svg>
